<svg xmlns="http://www.w3.org/2000/svg" xmlns:xlink="http://www.w3.org/1999/xlink" contentStyleType="text/css" data-diagram-type="DESCRIPTION" height="501px" preserveAspectRatio="none" style="width:1145px;height:501px;background:#FFFFFF;" version="1.1" viewBox="0 0 1145 501" width="1145px" zoomAndPan="magnify"><defs/><g><!--cluster ? Frontend (app)--><g class="cluster" data-entity=". Frontend .app." data-source-line="16" data-uid="ent0003" id="cluster_. Frontend .app."><rect fill="#D6EAF8" height="194" rx="2.5" ry="2.5" style="stroke:#181818;stroke-width:1;" width="557.4" x="103.2" y="7"/><text fill="#000000" font-family="sans-serif" font-size="14" font-style="italic" lengthAdjust="spacing" textLength="80.2402" x="341.7799" y="21.9951">&#171;Frontend&#187;</text><text fill="#000000" font-family="sans-serif" font-size="14" font-weight="bold" lengthAdjust="spacing" textLength="132.665" x="315.5675" y="38.292">&#128241; Frontend (app)</text></g><!--cluster ? Cliente API (src/api)--><g class="cluster" data-entity=". Cliente API .src.api." data-source-line="23" data-uid="ent0008" id="cluster_. Cliente API .src.api."><rect fill="#D5F5E3" height="113" rx="2.5" ry="2.5" style="stroke:#181818;stroke-width:1;" width="217.73" x="256.05" y="225"/><text fill="#000000" font-family="sans-serif" font-size="14" font-style="italic" lengthAdjust="spacing" textLength="79.8096" x="325.0102" y="239.9951">&#171;APIClient&#187;</text><text fill="#000000" font-family="sans-serif" font-size="14" font-weight="bold" lengthAdjust="spacing" textLength="170.5635" x="279.6333" y="256.292">&#127760; Cliente API (src/api)</text></g><!--cluster ? Backend API--><g class="cluster" data-entity=". Backend API" data-source-line="27" data-uid="ent0010" id="cluster_. Backend API"><rect fill="#F5B7B1" height="194" rx="2.5" ry="2.5" style="stroke:#181818;stroke-width:1;" width="396.91" x="501.78" y="225"/><text fill="#000000" font-family="sans-serif" font-size="14" font-style="italic" lengthAdjust="spacing" textLength="77.4922" x="661.4889" y="239.9951">&#171;Backend&#187;</text><text fill="#000000" font-family="sans-serif" font-size="14" font-weight="bold" lengthAdjust="spacing" textLength="111.665" x="644.4025" y="256.292">&#129513; Backend API</text></g><!--cluster ?? Base de Datos--><g class="cluster" data-entity=".. Base de Datos" data-source-line="33" data-uid="ent0014" id="cluster_.. Base de Datos"><rect fill="#D7BDE2" height="113" rx="2.5" ry="2.5" style="stroke:#181818;stroke-width:1;" width="185.12" x="939.69" y="164"/><text fill="#000000" font-family="sans-serif" font-size="14" font-style="italic" lengthAdjust="spacing" textLength="37.5156" x="1013.4922" y="178.9951">&#171;DB&#187;</text><text fill="#000000" font-family="sans-serif" font-size="14" font-weight="bold" lengthAdjust="spacing" textLength="126.1982" x="969.1509" y="195.292">&#128451;&#65039; Base de Datos</text></g><!--cluster ? Compartido (packages)--><g class="cluster" data-entity=". Compartido .packages." data-source-line="37" data-uid="ent0016" id="cluster_. Compartido .packages."><rect fill="#F9E79F" height="194" rx="2.5" ry="2.5" style="stroke:#181818;stroke-width:1;" width="212.56" x="926.47" y="301"/><text fill="#000000" font-family="sans-serif" font-size="14" font-style="italic" lengthAdjust="spacing" textLength="66.7256" x="999.3872" y="315.9951">&#171;Shared&#187;</text><text fill="#000000" font-family="sans-serif" font-size="14" font-weight="bold" lengthAdjust="spacing" textLength="197.3057" x="934.0972" y="332.292">&#128230; Compartido (packages)</text></g><!--entity Home--><g class="entity" data-entity="Home" data-source-line="17" data-uid="ent0004" id="entity_Home"><rect fill="#F1F1F1" height="46.2969" rx="2.5" ry="2.5" style="stroke:#181818;stroke-width:0.5;" width="81.3438" x="124.95" y="138.85"/><rect fill="#F1F1F1" height="10" style="stroke:#181818;stroke-width:0.5;" width="15" x="186.2938" y="143.85"/><rect fill="#F1F1F1" height="2" style="stroke:#181818;stroke-width:0.5;" width="4" x="184.2938" y="145.85"/><rect fill="#F1F1F1" height="2" style="stroke:#181818;stroke-width:0.5;" width="4" x="184.2938" y="149.85"/><text fill="#000000" font-family="sans-serif" font-size="14" lengthAdjust="spacing" textLength="41.3438" x="139.95" y="171.8451">Home</text></g><!--entity Explore--><g class="entity" data-entity="Explore" data-source-line="18" data-uid="ent0005" id="entity_Explore"><rect fill="#F1F1F1" height="46.2969" rx="2.5" ry="2.5" style="stroke:#181818;stroke-width:0.5;" width="92.8418" x="119.2" y="57.85"/><rect fill="#F1F1F1" height="10" style="stroke:#181818;stroke-width:0.5;" width="15" x="192.0418" y="62.85"/><rect fill="#F1F1F1" height="2" style="stroke:#181818;stroke-width:0.5;" width="4" x="190.0418" y="64.85"/><rect fill="#F1F1F1" height="2" style="stroke:#181818;stroke-width:0.5;" width="4" x="190.0418" y="68.85"/><text fill="#000000" font-family="sans-serif" font-size="14" lengthAdjust="spacing" textLength="52.8418" x="134.2" y="90.8451">Explore</text></g><!--entity Roadmap--><g class="entity" data-entity="Roadmap" data-source-line="19" data-uid="ent0006" id="entity_Roadmap"><rect fill="#F1F1F1" height="46.2969" rx="2.5" ry="2.5" style="stroke:#181818;stroke-width:0.5;" width="106.8623" x="311.48" y="98.85"/><rect fill="#F1F1F1" height="10" style="stroke:#181818;stroke-width:0.5;" width="15" x="398.3423" y="103.85"/><rect fill="#F1F1F1" height="2" style="stroke:#181818;stroke-width:0.5;" width="4" x="396.3423" y="105.85"/><rect fill="#F1F1F1" height="2" style="stroke:#181818;stroke-width:0.5;" width="4" x="396.3423" y="109.85"/><text fill="#000000" font-family="sans-serif" font-size="14" lengthAdjust="spacing" textLength="66.8623" x="326.48" y="131.8451">Roadmap</text></g><!--entity Webview--><g class="entity" data-entity="Webview" data-source-line="20" data-uid="ent0007" id="entity_Webview"><rect fill="#F1F1F1" height="46.2969" rx="2.5" ry="2.5" style="stroke:#181818;stroke-width:0.5;" width="103.5811" x="541.02" y="98.85"/><rect fill="#F1F1F1" height="10" style="stroke:#181818;stroke-width:0.5;" width="15" x="624.6011" y="103.85"/><rect fill="#F1F1F1" height="2" style="stroke:#181818;stroke-width:0.5;" width="4" x="622.6011" y="105.85"/><rect fill="#F1F1F1" height="2" style="stroke:#181818;stroke-width:0.5;" width="4" x="622.6011" y="109.85"/><text fill="#000000" font-family="sans-serif" font-size="14" lengthAdjust="spacing" textLength="63.5811" x="556.02" y="131.8451">Webview</text></g><!--entity FetchFuncs--><g class="entity" data-entity="FetchFuncs" data-source-line="24" data-uid="ent0009" id="entity_FetchFuncs"><rect fill="#F1F1F1" height="46.2969" rx="2.5" ry="2.5" style="stroke:#181818;stroke-width:0.5;" width="185.7354" x="272.05" y="275.85"/><rect fill="#F1F1F1" height="10" style="stroke:#181818;stroke-width:0.5;" width="15" x="437.7854" y="280.85"/><rect fill="#F1F1F1" height="2" style="stroke:#181818;stroke-width:0.5;" width="4" x="435.7854" y="282.85"/><rect fill="#F1F1F1" height="2" style="stroke:#181818;stroke-width:0.5;" width="4" x="435.7854" y="286.85"/><text fill="#000000" font-family="sans-serif" font-size="14" lengthAdjust="spacing" textLength="145.7354" x="287.05" y="308.8451">Funciones fetch/post</text></g><!--entity Endpoints--><g class="entity" data-entity="Endpoints" data-source-line="28" data-uid="ent0011" id="entity_Endpoints"><rect fill="#F1F1F1" height="46.2969" rx="2.5" ry="2.5" style="stroke:#181818;stroke-width:0.5;" width="150.0654" x="517.78" y="315.85"/><rect fill="#F1F1F1" height="10" style="stroke:#181818;stroke-width:0.5;" width="15" x="647.8454" y="320.85"/><rect fill="#F1F1F1" height="2" style="stroke:#181818;stroke-width:0.5;" width="4" x="645.8454" y="322.85"/><rect fill="#F1F1F1" height="2" style="stroke:#181818;stroke-width:0.5;" width="4" x="645.8454" y="326.85"/><text fill="#000000" font-family="sans-serif" font-size="14" lengthAdjust="spacing" textLength="110.0654" x="532.78" y="348.8451">Endpoints REST</text></g><!--entity Validate--><g class="entity" data-entity="Validate" data-source-line="29" data-uid="ent0012" id="entity_Validate"><rect fill="#F1F1F1" height="46.2969" rx="2.5" ry="2.5" style="stroke:#181818;stroke-width:0.5;" width="154.8438" x="727.85" y="356.85"/><rect fill="#F1F1F1" height="10" style="stroke:#181818;stroke-width:0.5;" width="15" x="862.6938" y="361.85"/><rect fill="#F1F1F1" height="2" style="stroke:#181818;stroke-width:0.5;" width="4" x="860.6938" y="363.85"/><rect fill="#F1F1F1" height="2" style="stroke:#181818;stroke-width:0.5;" width="4" x="860.6938" y="367.85"/><text fill="#000000" font-family="sans-serif" font-size="14" lengthAdjust="spacing" textLength="114.8438" x="742.85" y="389.8451">Validaci&#243;n (Zod)</text></g><!--entity DBAccess--><g class="entity" data-entity="DBAccess" data-source-line="30" data-uid="ent0013" id="entity_DBAccess"><rect fill="#F1F1F1" height="46.2969" rx="2.5" ry="2.5" style="stroke:#181818;stroke-width:0.5;" width="114.2793" x="748.13" y="275.85"/><rect fill="#F1F1F1" height="10" style="stroke:#181818;stroke-width:0.5;" width="15" x="842.4093" y="280.85"/><rect fill="#F1F1F1" height="2" style="stroke:#181818;stroke-width:0.5;" width="4" x="840.4093" y="282.85"/><rect fill="#F1F1F1" height="2" style="stroke:#181818;stroke-width:0.5;" width="4" x="840.4093" y="286.85"/><text fill="#000000" font-family="sans-serif" font-size="14" lengthAdjust="spacing" textLength="74.2793" x="763.13" y="308.8451">Acceso DB</text></g><!--entity Table--><g class="entity" data-entity="Table" data-source-line="34" data-uid="ent0015" id="entity_Table"><rect fill="#F1F1F1" height="46.2969" rx="2.5" ry="2.5" style="stroke:#181818;stroke-width:0.5;" width="153.1211" x="955.69" y="214.85"/><rect fill="#F1F1F1" height="10" style="stroke:#181818;stroke-width:0.5;" width="15" x="1088.8111" y="219.85"/><rect fill="#F1F1F1" height="2" style="stroke:#181818;stroke-width:0.5;" width="4" x="1086.8111" y="221.85"/><rect fill="#F1F1F1" height="2" style="stroke:#181818;stroke-width:0.5;" width="4" x="1086.8111" y="225.85"/><text fill="#000000" font-family="sans-serif" font-size="14" lengthAdjust="spacing" textLength="113.1211" x="970.69" y="247.8451">Tabla roadmaps</text></g><!--entity Types--><g class="entity" data-entity="Types" data-source-line="38" data-uid="ent0017" id="entity_Types"><rect fill="#F1F1F1" height="46.2969" rx="2.5" ry="2.5" style="stroke:#181818;stroke-width:0.5;" width="99.0762" x="982.71" y="432.85"/><rect fill="#F1F1F1" height="10" style="stroke:#181818;stroke-width:0.5;" width="15" x="1061.7862" y="437.85"/><rect fill="#F1F1F1" height="2" style="stroke:#181818;stroke-width:0.5;" width="4" x="1059.7862" y="439.85"/><rect fill="#F1F1F1" height="2" style="stroke:#181818;stroke-width:0.5;" width="4" x="1059.7862" y="443.85"/><text fill="#000000" font-family="sans-serif" font-size="14" lengthAdjust="spacing" textLength="59.0762" x="997.71" y="465.8451">Tipos TS</text></g><!--entity SchemaDB--><g class="entity" data-entity="SchemaDB" data-source-line="39" data-uid="ent0018" id="entity_SchemaDB"><rect fill="#F1F1F1" height="46.2969" rx="2.5" ry="2.5" style="stroke:#181818;stroke-width:0.5;" width="129.5645" x="967.47" y="351.85"/><rect fill="#F1F1F1" height="10" style="stroke:#181818;stroke-width:0.5;" width="15" x="1077.0345" y="356.85"/><rect fill="#F1F1F1" height="2" style="stroke:#181818;stroke-width:0.5;" width="4" x="1075.0345" y="358.85"/><rect fill="#F1F1F1" height="2" style="stroke:#181818;stroke-width:0.5;" width="4" x="1075.0345" y="362.85"/><text fill="#000000" font-family="sans-serif" font-size="14" lengthAdjust="spacing" textLength="89.5645" x="982.47" y="384.8451">Esquema DB</text></g><!--entity U--><g class="entity" data-entity="U" data-source-line="14" data-uid="ent0002" id="entity_U"><ellipse cx="32.6021" cy="92.35" fill="#F1F1F1" rx="8" ry="8" style="stroke:#181818;stroke-width:0.5;"/><path d="M32.6021,100.35 L32.6021,127.35 M19.6021,108.35 L45.6021,108.35 M32.6021,127.35 L19.6021,142.35 M32.6021,127.35 L45.6021,142.35" fill="none" style="stroke:#181818;stroke-width:0.5;"/><text fill="#000000" font-family="sans-serif" font-size="14" lengthAdjust="spacing" textLength="53.2041" x="6" y="156.8451">Usuario</text></g><!--link U to Home--><g class="link" data-entity-1="U" data-entity-2="Home" data-source-line="43" data-uid="lnk19" id="link_U_Home"><path d="M59.52,149.5 C78.2,149.5 97.42,149.5 118.59,149.5" fill="none" id="U-to-Home" style="stroke:#181818;stroke-width:1;"/><polygon fill="#181818" points="124.59,149.5,115.59,145.5,119.59,149.5,115.59,153.5,124.59,149.5" style="stroke:#181818;stroke-width:1;"/></g><!--link U to Explore--><g class="link" data-entity-1="U" data-entity-2="Explore" data-source-line="44" data-uid="lnk20" id="link_U_Explore"><path d="M59.52,94 C76.53,94 92.96,94 112.82,94" fill="none" id="U-to-Explore" style="stroke:#181818;stroke-width:1;"/><polygon fill="#181818" points="118.82,94,109.82,90,113.82,94,109.82,98,118.82,94" style="stroke:#181818;stroke-width:1;"/></g><!--link Home to FetchFuncs--><g class="link" data-entity-1="Home" data-entity-2="FetchFuncs" data-source-line="47" data-uid="lnk21" id="link_Home_FetchFuncs"><path d="M206.65,165.15 C241.47,165.15 285.81,165.15 285.81,165.15 C285.81,165.15 285.81,230.95 285.81,269.38" fill="none" id="Home-to-FetchFuncs" style="stroke:#181818;stroke-width:1;"/><polygon fill="#181818" points="285.81,275.38,289.81,266.38,285.81,270.38,281.81,266.38,285.81,275.38" style="stroke:#181818;stroke-width:1;"/></g><!--link Explore to FetchFuncs--><g class="link" data-entity-1="Explore" data-entity-2="FetchFuncs" data-source-line="48" data-uid="lnk22" id="link_Explore_FetchFuncs"><path d="M212.21,78.35 C250.61,78.35 298.81,78.35 298.81,78.35 C298.81,78.35 298.81,212.47 298.81,269.39" fill="none" id="Explore-to-FetchFuncs" style="stroke:#181818;stroke-width:1;"/><polygon fill="#181818" points="298.81,275.39,302.81,266.39,298.81,270.39,294.81,266.39,298.81,275.39" style="stroke:#181818;stroke-width:1;"/></g><!--link Home to Roadmap--><g class="link" data-entity-1="Home" data-entity-2="Roadmap" data-source-line="51" data-uid="lnk23" id="link_Home_Roadmap"><path d="M179.81,138.65 C179.81,132.37 179.81,127.28 179.81,127.28 C179.81,127.28 250.71,127.28 305.37,127.28" fill="none" id="Home-to-Roadmap" style="stroke:#181818;stroke-width:1;"/><polygon fill="#181818" points="311.37,127.28,302.37,123.28,306.37,127.28,302.37,131.28,311.37,127.28" style="stroke:#181818;stroke-width:1;"/></g><!--link Explore to Roadmap--><g class="link" data-entity-1="Explore" data-entity-2="Roadmap" data-source-line="52" data-uid="lnk24" id="link_Explore_Roadmap"><path d="M152.81,104.35 C152.81,110.63 152.81,115.72 152.81,115.72 C152.81,115.72 242.28,115.72 305.12,115.72" fill="none" id="Explore-to-Roadmap" style="stroke:#181818;stroke-width:1;"/><polygon fill="#181818" points="311.12,115.72,302.12,111.72,306.12,115.72,302.12,119.72,311.12,115.72" style="stroke:#181818;stroke-width:1;"/></g><!--link Roadmap to Webview--><g class="link" data-entity-1="Roadmap" data-entity-2="Webview" data-source-line="53" data-uid="lnk25" id="link_Roadmap_Webview"><path d="M418.63,122 C455.48,122 498.12,122 534.63,122" fill="none" id="Roadmap-to-Webview" style="stroke:#181818;stroke-width:1;"/><polygon fill="#181818" points="540.63,122,531.63,118,535.63,122,531.63,126,540.63,122" style="stroke:#181818;stroke-width:1;"/></g><!--link FetchFuncs to Endpoints--><g class="link" data-entity-1="FetchFuncs" data-entity-2="Endpoints" data-source-line="56" data-uid="lnk26" id="link_FetchFuncs_Endpoints"><path d="M457.96,302.52 C495.37,302.52 529.81,302.52 529.81,302.52 C529.81,302.52 529.81,302.54 529.81,309.69" fill="none" id="FetchFuncs-to-Endpoints" style="stroke:#181818;stroke-width:1;"/><polygon fill="#181818" points="529.81,315.69,533.81,306.69,529.81,310.69,525.81,306.69,529.81,315.69" style="stroke:#181818;stroke-width:1;"/></g><!--link Endpoints to Validate--><g class="link" data-entity-1="Endpoints" data-entity-2="Validate" data-source-line="59" data-uid="lnk27" id="link_Endpoints_Validate"><path d="M667.95,337 C703.72,337 738.81,337 738.81,337 C738.81,337 738.81,340.45 738.81,350.49" fill="none" id="Endpoints-to-Validate" style="stroke:#181818;stroke-width:1;"/><polygon fill="#181818" points="738.81,356.49,742.81,347.49,738.81,351.49,734.81,347.49,738.81,356.49" style="stroke:#181818;stroke-width:1;"/></g><!--link Endpoints to DBAccess--><g class="link" data-entity-1="Endpoints" data-entity-2="DBAccess" data-source-line="60" data-uid="lnk28" id="link_Endpoints_DBAccess"><path d="M656.81,315.55 C656.81,302.63 656.81,289.18 656.81,289.18 C656.81,289.18 700.1,289.18 741.87,289.18" fill="none" id="Endpoints-to-DBAccess" style="stroke:#181818;stroke-width:1;"/><polygon fill="#181818" points="747.87,289.18,738.87,285.18,742.87,289.18,738.87,293.18,747.87,289.18" style="stroke:#181818;stroke-width:1;"/></g><!--link DBAccess to Table--><g class="link" data-entity-1="DBAccess" data-entity-2="Table" data-source-line="61" data-uid="lnk29" id="link_DBAccess_Table"><path d="M862.67,291.28 C907.35,291.28 961.81,291.28 961.81,291.28 C961.81,291.28 961.81,281.8 961.81,267.53" fill="none" id="DBAccess-to-Table" style="stroke:#181818;stroke-width:1;"/><polygon fill="#181818" points="961.81,261.53,957.81,270.53,961.81,266.53,965.81,270.53,961.81,261.53" style="stroke:#181818;stroke-width:1;"/></g><!--link Endpoints to Types--><g class="link" data-entity-1="Endpoints" data-entity-2="Types" data-source-line="64" data-uid="lnk30" id="link_Endpoints_Types"><path d="M593.81,362.4 C593.81,396.54 593.81,456 593.81,456 C593.81,456 861.47,456 976.38,456" fill="none" id="Endpoints-to-Types" style="stroke:#181818;stroke-width:1;stroke-dasharray:7,7;"/><polygon fill="#181818" points="982.38,456,973.38,452,977.38,456,973.38,460,982.38,456" style="stroke:#181818;stroke-width:1;"/></g><!--link DBAccess to SchemaDB--><g class="link" data-entity-1="DBAccess" data-entity-2="SchemaDB" data-source-line="65" data-uid="lnk31" id="link_DBAccess_SchemaDB"><path d="M862.69,306.72 C930.1,306.72 1032.81,306.72 1032.81,306.72 C1032.81,306.72 1032.81,325.75 1032.81,345.5" fill="none" id="DBAccess-to-SchemaDB" style="stroke:#181818;stroke-width:1;stroke-dasharray:7,7;"/><polygon fill="#181818" points="1032.81,351.5,1036.81,342.5,1032.81,346.5,1028.81,342.5,1032.81,351.5" style="stroke:#181818;stroke-width:1;"/></g><!--SRC=[RLDDRnCn4BtxLupAWVJGLe12g5H5ocPt1HU4cWGaK0xJNIUnkh4Nssc9AavSaK3gWICt44V41N7j3uAVWCVhtMoYdDP-CtxpyTwQIo5BrBY4GaXkroK7fUr2CTC4IimkSSv7Tbrmq3opAES5RoMO1URgMiWvpB0mxKYJ3JSC8794SwrMCX-gGkcpirGhQRdC-tsu5pzE1kcJVLcZ1MhkSzBJf7UQxiiPl7WsB0INrbDrqsxoQ5yQ0Q5UserwqODzIN7aINfHd3naxnah-Co2LQ35V64X5pIKK98npApIC34hr4816fWm5fO51_- -tlw4Ua3eO5aU7i3MoBIIDq_Laa_faBmhNVNgVAumNsBfpw_unPNWrrFgf4N-yJDK0tDmiqF7wEm4I-5hj9VXYwGhcRcEkO4PjzdYf5J6JgdXbAuKDJlqttz0s1NH4-bcTPuoaNcfXBG6pfFHs9Cr4CLVOY5opCJTBmcTroe_z2aLQZbb3BAC6mLnv2DnvE-xVNpvyFVt9zUAuP1pYD4gGyruYNmVOxme47IrCEEf2E8xFBVVOAYMpfHMv0ew8MBykXf_LOJ2RGV6euhA_Gz-dCIyNV4brjsEieMxnH5LkTyumCtEjJF5tH-4J4aWRM4DbRAesGIEZleU3SUWEN4qJYaAT7LcZMAv5vXvBdhJaYmytuKTstEyulEmVT-LH71-SBabIekkXjam1hTjqTLO-7eiE97uoNALnMXG-ia1YzenRDDBDMNZ2_UoTbNeQaaEPXipKNvZacsuSKXzy6WbTejuPT0DwTIoRdbPexbfiHqVzuEo3HL1jQZ_0G00]--></g></svg>